<?xml version="1.0"?>
<svg xmlns="http://www.w3.org/2000/svg" xmlns:xlink="http://www.w3.org/1999/xlink" version="1.1" id="Capa_1" x="0px" y="0px" viewBox="0 0 455.431 455.431" style="enable-background:new 0 0 455.431 455.431;" xml:space="preserve" width="512px" height="512px" class=""><g><path style="fill:#A5722B" d="M405.493,412.764c-69.689,56.889-287.289,56.889-355.556,0c-69.689-56.889-62.578-300.089,0-364.089  s292.978-64,355.556,0S475.182,355.876,405.493,412.764z" data-original="#5CA4DA" class="active-path" data-old_color="#5CA4DA"/><path style="fill:#CC9E5D" d="M229.138,313.209c-62.578,49.778-132.267,75.378-197.689,76.8  c-48.356-82.489-38.4-283.022,18.489-341.333c51.2-52.622,211.911-62.578,304.356-29.867  C377.049,112.676,330.116,232.142,229.138,313.209z" data-original="#6DAFE0" class="" data-old_color="#6DAFE0"/><path style="fill:#FFFFFF;" d="M317.316,122.631c18.489,15.644,27.022,38.4,27.022,69.689s-8.533,54.044-27.022,69.689  c-18.489,14.222-46.933,21.333-83.911,21.333h-34.133v71.111h-56.889V99.876h91.022C270.382,99.876,298.827,106.987,317.316,122.631  z M274.649,223.609c7.111-7.111,9.956-18.489,9.956-34.133c0-14.222-4.267-25.6-12.8-31.289c-8.533-5.689-22.756-9.956-41.244-9.956  h-32.711v86.756h38.4C254.738,234.987,267.538,230.72,274.649,223.609z" data-original="#FFFFFF" class=""/></g> </svg>
